<svg width="1111" height="196" fill="none" xmlns="http://www.w3.org/2000/svg"><g opacity=".503" clip-path="url(#a)"><path d="M66.705 101.45c8.5 0 15.925 1.625 22.275 4.875 6.35 3.2 11.275 7.7 14.775 13.5 3.55 5.8 5.325 12.55 5.325 20.25 0 7.1-1.85 13.525-5.55 19.275-3.7 5.75-8.825 10.325-15.375 13.725-6.5 3.35-14.05 5.025-22.65 5.025-8.5 0-15.925-1.625-22.275-4.875-6.35-3.3-11.3-7.85-14.85-13.65-3.5-5.8-5.25-12.5-5.25-20.1 0-7.25 1.85-13.725 5.55-19.425 3.7-5.75 8.8-10.275 15.3-13.575 6.55-3.35 14.125-5.025 22.725-5.025zm5.475 65.775c1.9-.45 3.35-1.775 4.35-3.975 1-2.2 1.45-5.4 1.35-9.6-.1-4.2-.85-9.525-2.25-15.975-1.3-6.2-2.775-11.25-4.425-15.15-1.6-3.9-3.35-6.7-5.25-8.4-1.9-1.7-3.875-2.3-5.925-1.8-1.9.45-3.35 1.775-4.35 3.975-1 2.2-1.45 5.4-1.35 9.6.15 4.15.9 9.475 2.25 15.975 1.3 6.15 2.775 11.2 4.425 15.15 1.65 3.9 3.4 6.7 5.25 8.4 1.9 1.65 3.875 2.25 5.925 1.8zm99.982-6.6v-.975h-1.125V125c0-1.6-.225-2.725-.675-3.375-.4-.7-1.025-1.175-1.875-1.425l-1.65-.525c-1.05-.35-1.825-.85-2.325-1.5-.45-.65-.675-1.475-.675-2.475 0-1.2.325-2.15.975-2.85.65-.7 1.875-1.4 3.675-2.1l16.65-6.45c2.55-1 4.6-1.725 6.15-2.175 1.6-.45 3.15-.675 4.65-.675 2.25 0 3.95.65 5.1 1.95 1.2 1.25 1.8 2.85 1.8 4.8v52.05c0 2 .15 3.425.45 4.275.3.8.825 1.375 1.575 1.725l1.65.75c1.15.5 1.975 1.125 2.475 1.875s.75 1.625.75 2.625c0 1.4-.45 2.5-1.35 3.3-.9.8-2.35 1.2-4.35 1.2h-18.375c-3.55 0-6.7-1.525-9.45-4.575-2.7-3.05-4.05-6.65-4.05-10.8zm-49.575-6.525V125c0-1.6-.225-2.725-.675-3.375-.4-.7-1.025-1.175-1.875-1.425l-1.65-.525c-1.05-.35-1.825-.85-2.325-1.5-.45-.65-.675-1.475-.675-2.475 0-1.2.325-2.15.975-2.85.65-.7 1.875-1.4 3.675-2.1l16.65-6.45c2.7-1.05 4.825-1.775 6.375-2.175 1.55-.45 2.925-.675 4.125-.675 2.4 0 4.2.65 5.4 1.95 1.2 1.25 1.8 2.85 1.8 4.8v41.4c0 3.2.725 5.6 2.175 7.2 1.5 1.6 3.575 2.4 6.225 2.4 1.65 0 3.375-.325 5.175-.975 1.8-.65 3.4-1.6 4.8-2.85l2.625-2.325 4.5 4.8-2.25 2.1c-7.05 6.75-13.175 11.475-18.375 14.175-5.2 2.65-9.975 3.975-14.325 3.975-6.65 0-12.05-2.225-16.2-6.675-4.1-4.45-6.15-10.225-6.15-17.325zm131.596-19.05c0-7.65 1-13.95 3-18.9 2-5 4.65-8.7 7.95-11.1 3.35-2.4 7-3.6 10.95-3.6 5.3 0 9.35 1.6 12.15 4.8 2.85 3.15 4.275 7.925 4.275 14.325 0 6.55-1.325 11.375-3.975 14.475-2.6 3.1-6 4.65-10.2 4.65-4.25 0-7.45-1.075-9.6-3.225-2.1-2.2-3.15-5.225-3.15-9.075v-3.15c-.05-1.3-.35-2.275-.9-2.925-.5-.7-1.3-1.05-2.4-1.05-1 0-1.9.45-2.7 1.35-.75.85-1.35 2.275-1.8 4.275-.45 1.95-.675 4.6-.675 7.95l-2.925 1.2zm.825-26.85 2.1 15.675v36.375c0 1.75.25 3 .75 3.75.5.7 1.65 1.225 3.45 1.575l5.7 1.125c1.5.3 2.6.825 3.3 1.575.7.75 1.05 1.8 1.05 3.15 0 1.45-.5 2.575-1.5 3.375-.95.8-2.375 1.2-4.275 1.2h-41.475c-2 0-3.45-.4-4.35-1.2-.9-.8-1.35-1.9-1.35-3.3 0-1 .25-1.875.75-2.625s1.325-1.375 2.475-1.875l1.65-.75c.75-.35 1.275-.925 1.575-1.725.3-.85.45-2.275.45-4.275V125.3c0-1.6-.225-2.725-.675-3.375-.4-.7-1.025-1.175-1.875-1.425l-1.65-.525c-1.05-.35-1.825-.85-2.325-1.5-.45-.65-.675-1.475-.675-2.475 0-1.2.325-2.15.975-2.85.7-.75 1.925-1.45 3.675-2.1l16.125-6.3c3.55-1.4 6.1-2.3 7.65-2.7 1.55-.4 2.75-.6 3.6-.6 1.4 0 2.475.525 3.225 1.575.75 1 1.3 2.725 1.65 5.175zm149.06 16.425c0 3.8-1.45 7.025-4.35 9.675-2.85 2.65-6.675 3.975-11.475 3.975-4.65 0-8.15-1.225-10.5-3.675-2.3-2.5-3.45-5.675-3.45-9.525v-2.4c0-3.25-.675-5.8-2.025-7.65-1.35-1.9-3.125-2.85-5.325-2.85-1.75 0-3.4.65-4.95 1.95-1.5 1.3-2.725 3.3-3.675 6-.95 2.65-1.425 6.025-1.425 10.125 0 5.8.975 10.65 2.925 14.55 2 3.9 4.725 6.85 8.175 8.85 3.45 1.95 7.375 2.925 11.775 2.925 3.2 0 6.075-.375 8.625-1.125 2.6-.8 5.175-2.325 7.725-4.575 1.45-1.3 2.55-2.175 3.3-2.625.75-.45 1.475-.675 2.175-.675 1 0 1.725.5 2.175 1.5.5 1 .75 2.225.75 3.675 0 4.45-1.5 8.625-4.5 12.525-2.95 3.85-7.075 6.95-12.375 9.3-5.3 2.35-11.45 3.525-18.45 3.525-7.65 0-14.525-1.5-20.625-4.5-6.05-3.05-10.85-7.275-14.4-12.675-3.55-5.45-5.325-11.8-5.325-19.05 0-7.75 1.7-14.675 5.1-20.775 3.45-6.1 8.3-10.9 14.55-14.4 6.3-3.5 13.725-5.25 22.275-5.25 6.85 0 12.75 1.05 17.7 3.15 5 2.05 8.85 4.825 11.55 8.325 2.7 3.5 4.05 7.4 4.05 11.7zm51.992-23.175c8.5 0 15.925 1.625 22.275 4.875 6.35 3.2 11.275 7.7 14.775 13.5 3.55 5.8 5.325 12.55 5.325 20.25 0 7.1-1.85 13.525-5.55 19.275-3.7 5.75-8.825 10.325-15.375 13.725-6.5 3.35-14.05 5.025-22.65 5.025-8.5 0-15.925-1.625-22.275-4.875-6.35-3.3-11.3-7.85-14.85-13.65-3.5-5.8-5.25-12.5-5.25-20.1 0-7.25 1.85-13.725 5.55-19.425 3.7-5.75 8.8-10.275 15.3-13.575 6.55-3.35 14.125-5.025 22.725-5.025zm5.475 65.775c1.9-.45 3.35-1.775 4.35-3.975 1-2.2 1.45-5.4 1.35-9.6-.1-4.2-.85-9.525-2.25-15.975-1.3-6.2-2.775-11.25-4.425-15.15-1.6-3.9-3.35-6.7-5.25-8.4-1.9-1.7-3.875-2.3-5.925-1.8-1.9.45-3.35 1.775-4.35 3.975-1 2.2-1.45 5.4-1.35 9.6.15 4.15.9 9.475 2.25 15.975 1.3 6.15 2.775 11.2 4.425 15.15 1.65 3.9 3.4 6.7 5.25 8.4 1.9 1.65 3.875 2.25 5.925 1.8zM545.242 69.5v90.75c0 2 .15 3.425.45 4.275.3.8.825 1.375 1.575 1.725l1.65.75c1.15.5 1.975 1.125 2.475 1.875s.75 1.625.75 2.625c0 1.4-.45 2.5-1.35 3.3-.9.8-2.35 1.2-4.35 1.2h-34.2c-2 0-3.45-.4-4.35-1.2-.9-.8-1.35-1.9-1.35-3.3 0-1 .25-1.875.75-2.625s1.325-1.375 2.475-1.875l1.65-.75c.75-.35 1.275-.925 1.575-1.725.3-.85.45-2.275.45-4.275V86.3c0-1.6-.225-2.725-.675-3.375-.4-.7-1.025-1.175-1.875-1.425l-1.65-.525c-1.05-.35-1.825-.85-2.325-1.5-.45-.65-.675-1.475-.675-2.475 0-1.2.325-2.15.975-2.85.65-.7 1.875-1.4 3.675-2.1l16.65-6.45c2.7-1.05 4.825-1.775 6.375-2.175 1.55-.45 2.925-.675 4.125-.675 2.4 0 4.2.65 5.4 1.95 1.2 1.25 1.8 2.85 1.8 4.8zm52.735 0v90.75c0 2 .15 3.425.45 4.275.3.8.825 1.375 1.575 1.725l1.65.75c1.15.5 1.975 1.125 2.475 1.875s.75 1.625.75 2.625c0 1.4-.45 2.5-1.35 3.3-.9.8-2.35 1.2-4.35 1.2h-34.2c-2 0-3.45-.4-4.35-1.2-.9-.8-1.35-1.9-1.35-3.3 0-1 .25-1.875.75-2.625s1.325-1.375 2.475-1.875l1.65-.75c.75-.35 1.275-.925 1.575-1.725.3-.85.45-2.275.45-4.275V86.3c0-1.6-.225-2.725-.675-3.375-.4-.7-1.025-1.175-1.875-1.425l-1.65-.525c-1.05-.35-1.825-.85-2.325-1.5-.45-.65-.675-1.475-.675-2.475 0-1.2.325-2.15.975-2.85.65-.7 1.875-1.4 3.675-2.1l16.65-6.45c2.7-1.05 4.825-1.775 6.375-2.175 1.55-.45 2.925-.675 4.125-.675 2.4 0 4.2.65 5.4 1.95 1.2 1.25 1.8 2.85 1.8 4.8zm90.009 60.9c0 3.5-.95 6.225-2.85 8.175-1.9 1.9-4.625 2.85-8.175 2.85h-44.475v-7.8h20.025c2.75 0 4.125-1.3 4.125-3.9 0-6.3-.725-10.8-2.175-13.5-1.45-2.7-3.375-4.05-5.775-4.05-1.75 0-3.325.65-4.725 1.95-1.4 1.3-2.525 3.3-3.375 6-.8 2.65-1.2 6.025-1.2 10.125 0 9.1 2.05 15.775 6.15 20.025 4.1 4.2 9.7 6.3 16.8 6.3 3.3 0 6.3-.375 9-1.125s5.35-2.275 7.95-4.575c1.45-1.3 2.55-2.175 3.3-2.625.75-.45 1.475-.675 2.175-.675 1 0 1.725.5 2.175 1.5.5 1 .75 2.225.75 3.675 0 4.45-1.525 8.625-4.575 12.525-3 3.85-7.2 6.95-12.6 9.3-5.35 2.35-11.6 3.525-18.75 3.525-7.65 0-14.525-1.5-20.625-4.5-6.1-3.05-10.925-7.275-14.475-12.675-3.55-5.45-5.325-11.8-5.325-19.05 0-8.15 1.625-15.25 4.875-21.3 3.25-6.05 7.975-10.75 14.175-14.1 6.25-3.35 13.775-5.025 22.575-5.025 7.75 0 14.225 1.25 19.425 3.75 5.2 2.5 9.1 5.925 11.7 10.275 2.6 4.35 3.9 9.325 3.9 14.925zm82.586-5.775c0 3.8-1.45 7.025-4.35 9.675-2.85 2.65-6.675 3.975-11.475 3.975-4.65 0-8.15-1.225-10.5-3.675-2.3-2.5-3.45-5.675-3.45-9.525v-2.4c0-3.25-.675-5.8-2.025-7.65-1.35-1.9-3.125-2.85-5.325-2.85-1.75 0-3.4.65-4.95 1.95-1.5 1.3-2.725 3.3-3.675 6-.95 2.65-1.425 6.025-1.425 10.125 0 5.8.975 10.65 2.925 14.55 2 3.9 4.725 6.85 8.175 8.85 3.45 1.95 7.375 2.925 11.775 2.925 3.2 0 6.075-.375 8.625-1.125 2.6-.8 5.175-2.325 7.725-4.575 1.45-1.3 2.55-2.175 3.3-2.625.75-.45 1.475-.675 2.175-.675 1 0 1.725.5 2.175 1.5.5 1 .75 2.225.75 3.675 0 4.45-1.5 8.625-4.5 12.525-2.95 3.85-7.075 6.95-12.375 9.3-5.3 2.35-11.45 3.525-18.45 3.525-7.65 0-14.525-1.5-20.625-4.5-6.05-3.05-10.85-7.275-14.4-12.675-3.55-5.45-5.325-11.8-5.325-19.05 0-7.75 1.7-14.675 5.1-20.775 3.45-6.1 8.3-10.9 14.55-14.4 6.3-3.5 13.725-5.25 22.275-5.25 6.85 0 12.75 1.05 17.7 3.15 5 2.05 8.85 4.825 11.55 8.325 2.7 3.5 4.05 7.4 4.05 11.7zm11.867-11.175-2.4-.975c-1.1-.45-1.925-1.025-2.475-1.725-.55-.7-.825-1.55-.825-2.55 0-1.45.475-2.55 1.425-3.3 1-.8 2.275-1.2 3.825-1.2h4.125c.95 0 1.825-.25 2.625-.75.85-.5 1.925-1.4 3.225-2.7l12.225-12.375c1.65-1.65 3.175-2.875 4.575-3.675 1.45-.8 2.825-1.2 4.125-1.2 1.45 0 2.575.475 3.375 1.425.85.95 1.275 2.325 1.275 4.125v60.15c0 3.65.625 6.425 1.875 8.325 1.25 1.9 3.05 2.85 5.4 2.85 1.9 0 3.35-.475 4.35-1.425a10.912 10.912 0 0 0 2.475-3.225c.65-1.25 1.325-2.35 2.025-3.3.7-.95 1.65-1.425 2.85-1.425 1 0 1.8.35 2.4 1.05.6.7.9 1.9.9 3.6 0 4.25-1.225 8.125-3.675 11.625-2.45 3.45-5.825 6.2-10.125 8.25s-9.2 3.075-14.7 3.075c-8.15 0-14.45-1.95-18.9-5.85-4.45-3.95-6.675-9.9-6.675-17.85v-36.075c0-1.45-.275-2.5-.825-3.15-.5-.65-1.325-1.225-2.475-1.725zm24.15.9V103.7h27.375c1.55 0 2.775.35 3.675 1.05.95.65 1.425 1.6 1.425 2.85 0 1.9-.925 3.5-2.775 4.8-1.85 1.3-4.9 1.95-9.15 1.95h-20.55zm78.058-6.15v52.05c0 2 .15 3.425.45 4.275.3.8.825 1.375 1.575 1.725l1.65.75c1.15.5 1.975 1.125 2.475 1.875s.75 1.625.75 2.625c0 1.4-.45 2.5-1.35 3.3-.9.8-2.35 1.2-4.35 1.2h-34.2c-2 0-3.45-.4-4.35-1.2-.9-.8-1.35-1.9-1.35-3.3 0-1 .25-1.875.75-2.625s1.325-1.375 2.475-1.875l1.65-.75c.75-.35 1.275-.925 1.575-1.725.3-.85.45-2.275.45-4.275V125c0-1.6-.225-2.725-.675-3.375-.4-.7-1.025-1.175-1.875-1.425l-1.65-.525c-1.05-.35-1.825-.85-2.325-1.5-.45-.65-.675-1.475-.675-2.475 0-1.2.325-2.15.975-2.85.65-.7 1.875-1.4 3.675-2.1l16.65-6.45c2.7-1.05 4.825-1.775 6.375-2.175 1.55-.45 2.925-.675 4.125-.675 2.4 0 4.2.65 5.4 1.95 1.2 1.25 1.8 2.85 1.8 4.8zm-17.55-13.35c-5.6 0-10.025-1.3-13.275-3.9-3.25-2.6-4.875-6.15-4.875-10.65 0-4.45 1.625-7.95 4.875-10.5s7.675-3.825 13.275-3.825c5.6 0 10.025 1.275 13.275 3.825 3.25 2.55 4.875 6.05 4.875 10.5 0 4.5-1.625 8.05-4.875 10.65-3.25 2.6-7.675 3.9-13.275 3.9zm74.559 6.6c8.5 0 15.925 1.625 22.275 4.875 6.35 3.2 11.275 7.7 14.775 13.5 3.55 5.8 5.325 12.55 5.325 20.25 0 7.1-1.85 13.525-5.55 19.275-3.7 5.75-8.825 10.325-15.375 13.725-6.5 3.35-14.05 5.025-22.65 5.025-8.5 0-15.925-1.625-22.275-4.875-6.35-3.3-11.3-7.85-14.85-13.65-3.5-5.8-5.25-12.5-5.25-20.1 0-7.25 1.85-13.725 5.55-19.425 3.7-5.75 8.8-10.275 15.3-13.575 6.55-3.35 14.125-5.025 22.725-5.025zm5.475 65.775c1.9-.45 3.35-1.775 4.35-3.975 1-2.2 1.45-5.4 1.35-9.6-.1-4.2-.85-9.525-2.25-15.975-1.3-6.2-2.775-11.25-4.425-15.15-1.6-3.9-3.35-6.7-5.25-8.4-1.9-1.7-3.875-2.3-5.925-1.8-1.9.45-3.35 1.775-4.35 3.975-1 2.2-1.45 5.4-1.35 9.6.15 4.15.9 9.475 2.25 15.975 1.3 6.15 2.775 11.2 4.425 15.15 1.65 3.9 3.4 6.7 5.25 8.4 1.9 1.65 3.875 2.25 5.925 1.8zm83.709-59.025v52.05c0 2 .15 3.4.45 4.2.3.8.82 1.4 1.57 1.8l1.5.825c1.65.95 2.48 2.325 2.48 4.125 0 3.2-1.93 4.8-5.78 4.8h-33.222c-2 0-3.45-.4-4.35-1.2-.9-.8-1.35-1.9-1.35-3.3 0-1 .25-1.875.75-2.625s1.325-1.375 2.475-1.875l1.65-.75c.75-.35 1.275-.925 1.575-1.725.3-.85.45-2.275.45-4.275V125c0-1.6-.225-2.725-.675-3.375-.4-.7-1.025-1.175-1.875-1.425l-1.65-.525c-1.05-.35-1.825-.85-2.325-1.5-.45-.65-.675-1.475-.675-2.475 0-1.2.325-2.15.975-2.85.65-.7 1.875-1.4 3.675-2.1l16.652-6.45c2.55-1 4.6-1.725 6.15-2.175 1.6-.45 3.15-.675 4.65-.675 2.25 0 3.95.65 5.1 1.95 1.2 1.25 1.8 2.85 1.8 4.8zm-2.7 18.3-4.5-4.8 2.25-2.1c7.05-6.75 13.17-11.45 18.37-14.1 5.2-2.7 9.98-4.05 14.33-4.05 6.7 0 12.1 2.225 16.2 6.675 4.1 4.4 6.15 10.175 6.15 17.325v34.8c0 2 .15 3.425.45 4.275.3.8.82 1.375 1.57 1.725l1.65.75c1.15.5 1.98 1.125 2.48 1.875s.75 1.625.75 2.625c0 1.4-.45 2.5-1.35 3.3-.9.8-2.35 1.2-4.35 1.2h-33.23c-3.85 0-5.77-1.6-5.77-4.8 0-1.8.82-3.175 2.47-4.125l1.5-.825c.75-.4 1.28-1 1.58-1.8.3-.8.45-2.2.45-4.2v-30.3c0-3.2-.75-5.6-2.25-7.2-1.45-1.6-3.5-2.4-6.15-2.4-1.65 0-3.38.325-5.18.975-1.8.65-3.4 1.6-4.8 2.85l-2.62 2.325z" fill="#83888F"/><path fill="url(#b)" d="M0 0h1111v196H0z"/></g><defs><linearGradient id="b" x1="0" y1="0" x2="0" y2="196" gradientUnits="userSpaceOnUse"><stop stop-color="#FEFCF7" stop-opacity=".01"/><stop offset="1" stop-color="#FEFCF7"/></linearGradient><clipPath id="a"><path fill="#fff" d="M0 0h1111v196H0z"/></clipPath></defs></svg>