<svg width="375" height="72" fill="none" xmlns="http://www.w3.org/2000/svg"><g clip-path="url(#a)"><path d="M56.788 30.12c2.267 0 4.247.433 5.94 1.3 1.693.853 3.007 2.053 3.94 3.6.947 1.547 1.42 3.347 1.42 5.4 0 1.893-.493 3.607-1.48 5.14-.987 1.533-2.353 2.753-4.1 3.66-1.733.893-3.747 1.34-6.04 1.34-2.267 0-4.247-.433-5.94-1.3-1.693-.88-3.013-2.093-3.96-3.64-.933-1.547-1.4-3.333-1.4-5.36 0-1.933.493-3.66 1.48-5.18.987-1.533 2.347-2.74 4.08-3.62 1.747-.893 3.767-1.34 6.06-1.34zm1.46 17.54c.507-.12.893-.473 1.16-1.06.267-.587.387-1.44.36-2.56-.027-1.12-.227-2.54-.6-4.26-.347-1.653-.74-3-1.18-4.04-.427-1.04-.893-1.787-1.4-2.24-.507-.453-1.033-.613-1.58-.48-.507.12-.893.473-1.16 1.06-.267.587-.387 1.44-.36 2.56.04 1.107.24 2.527.6 4.26.347 1.64.74 2.987 1.18 4.04.44 1.04.907 1.787 1.4 2.24.507.44 1.033.6 1.58.48zM84.91 45.9v-.26h-.3V36.4c0-.427-.06-.727-.18-.9a.813.813 0 0 0-.5-.38l-.44-.14c-.28-.093-.487-.227-.62-.4-.12-.173-.18-.393-.18-.66 0-.32.087-.573.26-.76.173-.187.5-.373.98-.56l4.44-1.72c.68-.267 1.227-.46 1.64-.58.426-.12.84-.18 1.24-.18.6 0 1.053.173 1.36.52.32.333.48.76.48 1.28V45.8c0 .533.04.913.12 1.14.08.213.22.367.42.46l.44.2c.306.133.527.3.66.5s.2.433.2.7c0 .373-.12.667-.36.88-.24.213-.627.32-1.16.32h-4.9c-.947 0-1.787-.407-2.52-1.22-.72-.813-1.08-1.773-1.08-2.88zm-13.22-1.74V36.4c0-.427-.06-.727-.18-.9a.813.813 0 0 0-.5-.38l-.44-.14c-.28-.093-.487-.227-.62-.4-.12-.173-.18-.393-.18-.66 0-.32.087-.573.26-.76.173-.187.5-.373.98-.56l4.44-1.72c.72-.28 1.287-.473 1.7-.58.413-.12.78-.18 1.1-.18.64 0 1.12.173 1.44.52.32.333.48.76.48 1.28v11.04c0 .853.193 1.493.58 1.92.4.427.953.64 1.66.64.44 0 .9-.087 1.38-.26.48-.173.906-.427 1.28-.76l.7-.62 1.2 1.28-.6.56c-1.88 1.8-3.514 3.06-4.9 3.78-1.387.707-2.66 1.06-3.82 1.06-1.774 0-3.214-.593-4.32-1.78-1.093-1.187-1.64-2.727-1.64-4.62zm35.092-5.08c0-2.04.267-3.72.8-5.04.533-1.333 1.24-2.32 2.12-2.96.893-.64 1.867-.96 2.92-.96 1.413 0 2.493.427 3.24 1.28.76.84 1.14 2.113 1.14 3.82 0 1.747-.353 3.033-1.06 3.86-.693.827-1.6 1.24-2.72 1.24-1.133 0-1.987-.287-2.56-.86-.56-.587-.84-1.393-.84-2.42v-.84c-.013-.347-.093-.607-.24-.78-.133-.187-.347-.28-.64-.28-.267 0-.507.12-.72.36-.2.227-.36.607-.48 1.14-.12.52-.18 1.227-.18 2.12l-.78.32zm.22-7.16.56 4.18v9.7c0 .467.067.8.2 1 .133.187.44.327.92.42l1.52.3c.4.08.693.22.88.42.187.2.28.48.28.84 0 .387-.133.687-.4.9-.253.213-.633.32-1.14.32h-11.06c-.533 0-.92-.107-1.16-.32-.24-.213-.36-.507-.36-.88 0-.267.067-.5.2-.7.133-.2.353-.367.66-.5l.44-.2c.2-.093.34-.247.42-.46.08-.227.12-.607.12-1.14v-9.32c0-.427-.06-.727-.18-.9a.813.813 0 0 0-.5-.38l-.44-.14c-.28-.093-.487-.227-.62-.4-.12-.173-.18-.393-.18-.66 0-.32.087-.573.26-.76.187-.2.513-.387.98-.56l4.3-1.68c.947-.373 1.627-.613 2.04-.72.413-.107.733-.16.96-.16.373 0 .66.14.86.42.2.267.347.727.44 1.38zm39.749 4.38c0 1.013-.386 1.873-1.16 2.58-.76.707-1.78 1.06-3.06 1.06-1.24 0-2.173-.327-2.8-.98-.613-.667-.92-1.513-.92-2.54v-.64c0-.867-.18-1.547-.54-2.04-.36-.507-.833-.76-1.42-.76-.466 0-.906.173-1.32.52-.4.347-.726.88-.98 1.6-.253.707-.38 1.607-.38 2.7 0 1.547.26 2.84.78 3.88.534 1.04 1.26 1.827 2.18 2.36.92.52 1.967.78 3.14.78.854 0 1.62-.1 2.3-.3.694-.213 1.38-.62 2.06-1.22.387-.347.68-.58.88-.7.2-.12.394-.18.58-.18.267 0 .46.133.58.4.134.267.2.593.2.98 0 1.187-.4 2.3-1.2 3.34-.786 1.027-1.886 1.853-3.3 2.48-1.413.627-3.053.94-4.92.94-2.04 0-3.873-.4-5.5-1.2-1.613-.813-2.893-1.94-3.84-3.38-.946-1.453-1.42-3.147-1.42-5.08 0-2.067.454-3.913 1.36-5.54.92-1.627 2.214-2.907 3.88-3.84 1.68-.933 3.66-1.4 5.94-1.4 1.827 0 3.4.28 4.72.84 1.334.547 2.36 1.287 3.08 2.22.72.933 1.08 1.973 1.08 3.12zm13.865-6.18c2.267 0 4.247.433 5.94 1.3 1.693.853 3.007 2.053 3.94 3.6.947 1.547 1.42 3.347 1.42 5.4 0 1.893-.493 3.607-1.48 5.14-.987 1.533-2.353 2.753-4.1 3.66-1.733.893-3.747 1.34-6.04 1.34-2.267 0-4.247-.433-5.94-1.3-1.693-.88-3.013-2.093-3.96-3.64-.933-1.547-1.4-3.333-1.4-5.36 0-1.933.493-3.66 1.48-5.18.987-1.533 2.347-2.74 4.08-3.62 1.747-.893 3.767-1.34 6.06-1.34zm1.46 17.54c.507-.12.893-.473 1.16-1.06.267-.587.387-1.44.36-2.56-.027-1.12-.227-2.54-.6-4.26-.347-1.653-.74-3-1.18-4.04-.427-1.04-.893-1.787-1.4-2.24-.507-.453-1.033-.613-1.58-.48-.507.12-.893.473-1.16 1.06-.267.587-.387 1.44-.36 2.56.04 1.107.24 2.527.6 4.26.347 1.64.74 2.987 1.18 4.04.44 1.04.907 1.787 1.4 2.24.507.44 1.033.6 1.58.48zm22.322-26.06v24.2c0 .533.04.913.12 1.14.08.213.22.367.42.46l.44.2c.307.133.527.3.66.5s.2.433.2.7c0 .373-.12.667-.36.88-.24.213-.627.32-1.16.32h-9.12c-.533 0-.92-.107-1.16-.32-.24-.213-.36-.507-.36-.88 0-.267.067-.5.2-.7.133-.2.353-.367.66-.5l.44-.2c.2-.093.34-.247.42-.46.08-.227.12-.607.12-1.14V26.08c0-.427-.06-.727-.18-.9a.813.813 0 0 0-.5-.38l-.44-.14c-.28-.093-.487-.227-.62-.4-.12-.173-.18-.393-.18-.66 0-.32.087-.573.26-.76.173-.187.5-.373.98-.56l4.44-1.72c.72-.28 1.287-.473 1.7-.58.413-.12.78-.18 1.1-.18.64 0 1.12.173 1.44.52.32.333.48.76.48 1.28zm14.062 0v24.2c0 .533.04.913.12 1.14.08.213.22.367.42.46l.44.2c.307.133.527.3.66.5.134.2.2.433.2.7 0 .373-.12.667-.36.88-.24.213-.626.32-1.16.32h-9.12c-.533 0-.92-.107-1.16-.32-.24-.213-.36-.507-.36-.88 0-.267.067-.5.2-.7.134-.2.354-.367.66-.5l.44-.2c.2-.093.34-.247.42-.46.08-.227.12-.607.12-1.14V26.08c0-.427-.06-.727-.18-.9a.81.81 0 0 0-.5-.38l-.44-.14c-.28-.093-.486-.227-.62-.4-.12-.173-.18-.393-.18-.66 0-.32.087-.573.26-.76.174-.187.5-.373.98-.56l4.44-1.72c.72-.28 1.287-.473 1.7-.58.414-.12.78-.18 1.1-.18.64 0 1.12.173 1.44.52.32.333.48.76.48 1.28zm24.003 16.24c0 .933-.253 1.66-.76 2.18-.507.507-1.233.76-2.18.76h-11.86V38.7h5.34c.733 0 1.1-.347 1.1-1.04 0-1.68-.193-2.88-.58-3.6-.387-.72-.9-1.08-1.54-1.08-.467 0-.887.173-1.26.52-.373.347-.673.88-.9 1.6-.213.707-.32 1.607-.32 2.7 0 2.427.547 4.207 1.64 5.34 1.093 1.12 2.587 1.68 4.48 1.68.88 0 1.68-.1 2.4-.3.72-.2 1.427-.607 2.12-1.22.387-.347.68-.58.88-.7.2-.12.393-.18.58-.18.267 0 .46.133.58.4.133.267.2.593.2.98 0 1.187-.407 2.3-1.22 3.34-.8 1.027-1.92 1.853-3.36 2.48-1.427.627-3.093.94-5 .94-2.04 0-3.873-.4-5.5-1.2-1.627-.813-2.913-1.94-3.86-3.38-.947-1.453-1.42-3.147-1.42-5.08 0-2.173.433-4.067 1.3-5.68.867-1.613 2.127-2.867 3.78-3.76 1.667-.893 3.673-1.34 6.02-1.34 2.067 0 3.793.333 5.18 1 1.387.667 2.427 1.58 3.12 2.74.693 1.16 1.04 2.487 1.04 3.98zm22.023-1.54c0 1.013-.387 1.873-1.16 2.58-.76.707-1.78 1.06-3.06 1.06-1.24 0-2.174-.327-2.8-.98-.614-.667-.92-1.513-.92-2.54v-.64c0-.867-.18-1.547-.54-2.04-.36-.507-.834-.76-1.42-.76-.467 0-.907.173-1.32.52-.4.347-.727.88-.98 1.6-.254.707-.38 1.607-.38 2.7 0 1.547.26 2.84.78 3.88.533 1.04 1.26 1.827 2.18 2.36.92.52 1.966.78 3.14.78.853 0 1.62-.1 2.3-.3.693-.213 1.38-.62 2.06-1.22.386-.347.68-.58.88-.7.2-.12.393-.18.58-.18.266 0 .46.133.58.4.133.267.2.593.2.98 0 1.187-.4 2.3-1.2 3.34-.787 1.027-1.887 1.853-3.3 2.48-1.414.627-3.054.94-4.92.94-2.04 0-3.874-.4-5.5-1.2-1.614-.813-2.894-1.94-3.84-3.38-.947-1.453-1.42-3.147-1.42-5.08 0-2.067.453-3.913 1.36-5.54.92-1.627 2.213-2.907 3.88-3.84 1.68-.933 3.66-1.4 5.94-1.4 1.826 0 3.4.28 4.72.84 1.333.547 2.36 1.287 3.08 2.22.72.933 1.08 1.973 1.08 3.12zm3.164-2.98-.64-.26c-.293-.12-.513-.273-.66-.46a1.07 1.07 0 0 1-.22-.68c0-.387.127-.68.38-.88.267-.213.607-.32 1.02-.32h1.1c.254 0 .487-.067.7-.2.227-.133.514-.373.86-.72l3.26-3.3c.44-.44.847-.767 1.22-.98.387-.213.754-.32 1.1-.32.387 0 .687.127.9.38.227.253.34.62.34 1.1v16.04c0 .973.167 1.713.5 2.22.334.507.814.76 1.44.76.507 0 .894-.127 1.16-.38.28-.253.5-.54.66-.86a6.82 6.82 0 0 1 .54-.88.895.895 0 0 1 .76-.38.8.8 0 0 1 .64.28c.16.187.24.507.24.96a5.28 5.28 0 0 1-.98 3.1c-.653.92-1.553 1.653-2.7 2.2-1.146.547-2.453.82-3.92.82-2.173 0-3.853-.52-5.04-1.56-1.186-1.053-1.78-2.64-1.78-4.76v-9.62c0-.387-.073-.667-.22-.84-.133-.173-.353-.327-.66-.46zm6.44.24v-2.84h7.3c.414 0 .74.093.98.28.254.173.38.427.38.76 0 .507-.246.933-.74 1.28-.493.347-1.306.52-2.44.52h-5.48zm20.816-1.64V45.8c0 .533.04.913.12 1.14.08.213.22.367.42.46l.44.2c.306.133.526.3.66.5.133.2.2.433.2.7 0 .373-.12.667-.36.88-.24.213-.627.32-1.16.32h-9.12c-.534 0-.92-.107-1.16-.32-.24-.213-.36-.507-.36-.88 0-.267.066-.5.2-.7.133-.2.353-.367.66-.5l.44-.2c.2-.093.34-.247.42-.46.08-.227.12-.607.12-1.14v-9.4c0-.427-.06-.727-.18-.9a.816.816 0 0 0-.5-.38l-.44-.14c-.28-.093-.487-.227-.62-.4-.12-.173-.18-.393-.18-.66 0-.32.086-.573.26-.76.173-.187.5-.373.98-.56l4.44-1.72c.72-.28 1.286-.473 1.7-.58.413-.12.78-.18 1.1-.18.64 0 1.12.173 1.44.52.32.333.48.76.48 1.28zm-4.68-3.56c-1.494 0-2.674-.347-3.54-1.04-.867-.693-1.3-1.64-1.3-2.84 0-1.187.433-2.12 1.3-2.8.866-.68 2.046-1.02 3.54-1.02 1.493 0 2.673.34 3.54 1.02.866.68 1.3 1.613 1.3 2.8 0 1.2-.434 2.147-1.3 2.84-.867.693-2.047 1.04-3.54 1.04zm19.882 1.76c2.267 0 4.247.433 5.94 1.3 1.694.853 3.007 2.053 3.94 3.6.947 1.547 1.42 3.347 1.42 5.4 0 1.893-.493 3.607-1.48 5.14-.986 1.533-2.353 2.753-4.1 3.66-1.733.893-3.746 1.34-6.04 1.34-2.266 0-4.246-.433-5.94-1.3-1.693-.88-3.013-2.093-3.96-3.64-.933-1.547-1.4-3.333-1.4-5.36 0-1.933.494-3.66 1.48-5.18.987-1.533 2.347-2.74 4.08-3.62 1.747-.893 3.767-1.34 6.06-1.34zm1.46 17.54c.507-.12.894-.473 1.16-1.06.267-.587.387-1.44.36-2.56-.026-1.12-.226-2.54-.6-4.26-.346-1.653-.74-3-1.18-4.04-.426-1.04-.893-1.787-1.4-2.24-.506-.453-1.033-.613-1.58-.48-.506.12-.893.473-1.16 1.06-.266.587-.386 1.44-.36 2.56.04 1.107.24 2.527.6 4.26.347 1.64.74 2.987 1.18 4.04.44 1.04.907 1.787 1.4 2.24.507.44 1.034.6 1.58.48zm22.322-15.74V45.8c0 .533.04.907.12 1.12.08.213.22.373.42.48l.4.22c.44.253.66.62.66 1.1 0 .853-.513 1.28-1.54 1.28h-8.86c-.533 0-.92-.107-1.16-.32-.24-.213-.36-.507-.36-.88 0-.267.067-.5.2-.7.133-.2.353-.367.66-.5l.44-.2c.2-.093.34-.247.42-.46.08-.227.12-.607.12-1.14v-9.4c0-.427-.06-.727-.18-.9a.813.813 0 0 0-.5-.38l-.44-.14c-.28-.093-.487-.227-.62-.4-.12-.173-.18-.393-.18-.66 0-.32.087-.573.26-.76.173-.187.5-.373.98-.56l4.44-1.72c.68-.267 1.227-.46 1.64-.58.427-.12.84-.18 1.24-.18.6 0 1.053.173 1.36.52.32.333.48.76.48 1.28zm-.72 4.88-1.2-1.28.6-.56c1.88-1.8 3.513-3.053 4.9-3.76 1.387-.72 2.66-1.08 3.82-1.08 1.787 0 3.227.593 4.32 1.78 1.093 1.173 1.64 2.713 1.64 4.62v9.28c0 .533.04.913.12 1.14.08.213.22.367.42.46l.44.2c.307.133.527.3.66.5s.2.433.2.7c0 .373-.12.667-.36.88-.24.213-.627.32-1.16.32h-8.86c-1.027 0-1.54-.427-1.54-1.28 0-.48.22-.847.66-1.1l.4-.22c.2-.107.34-.267.42-.48.08-.213.12-.587.12-1.12v-8.08c0-.853-.2-1.493-.6-1.92-.387-.427-.933-.64-1.64-.64-.44 0-.9.087-1.38.26a3.88 3.88 0 0 0-1.28.76l-.7.62z" fill="#83888F"/><path fill="url(#b)" d="M0 0h375v72H0z"/></g><defs><linearGradient id="b" x1="0" y1="0" x2="0" y2="72" gradientUnits="userSpaceOnUse"><stop stop-color="#FEFCF7" stop-opacity=".01"/><stop offset="1" stop-color="#FEFCF7"/></linearGradient><clipPath id="a"><path fill="#fff" d="M0 0h375v72H0z"/></clipPath></defs></svg>